<mxfile host="app.diagrams.net" agent="Mozilla/5.0 (Windows NT 10.0; Win64; x64) AppleWebKit/537.36 (KHTML, like Gecko) Chrome/131.0.0.0 Safari/537.36 Edg/131.0.0.0" version="24.8.3">
  <diagram name="Page-1" id="ladpv2nuUZ4FTgwAZeLA">
    <mxGraphModel dx="1282" dy="565" grid="1" gridSize="10" guides="1" tooltips="1" connect="1" arrows="1" fold="1" page="1" pageScale="1" pageWidth="850" pageHeight="1100" math="0" shadow="0">
      <root>
        <mxCell id="0" />
        <mxCell id="1" parent="0" />
        <mxCell id="iWKQyW9_2lbPBLA1aNCP-2" style="edgeStyle=orthogonalEdgeStyle;rounded=0;orthogonalLoop=1;jettySize=auto;html=1;exitX=0.5;exitY=1;exitDx=0;exitDy=0;" edge="1" parent="1" source="iWKQyW9_2lbPBLA1aNCP-1">
          <mxGeometry relative="1" as="geometry">
            <mxPoint x="60" y="120" as="targetPoint" />
          </mxGeometry>
        </mxCell>
        <mxCell id="iWKQyW9_2lbPBLA1aNCP-1" value="Mulai" style="rounded=1;whiteSpace=wrap;html=1;" vertex="1" parent="1">
          <mxGeometry width="120" height="60" as="geometry" />
        </mxCell>
        <mxCell id="iWKQyW9_2lbPBLA1aNCP-4" style="edgeStyle=orthogonalEdgeStyle;rounded=0;orthogonalLoop=1;jettySize=auto;html=1;exitX=0.5;exitY=1;exitDx=0;exitDy=0;" edge="1" parent="1" source="iWKQyW9_2lbPBLA1aNCP-3" target="iWKQyW9_2lbPBLA1aNCP-5">
          <mxGeometry relative="1" as="geometry">
            <mxPoint x="60" y="240" as="targetPoint" />
          </mxGeometry>
        </mxCell>
        <mxCell id="iWKQyW9_2lbPBLA1aNCP-3" value="KLIK &quot;Run&quot;" style="rounded=1;whiteSpace=wrap;html=1;" vertex="1" parent="1">
          <mxGeometry y="120" width="120" height="60" as="geometry" />
        </mxCell>
        <mxCell id="iWKQyW9_2lbPBLA1aNCP-10" style="edgeStyle=orthogonalEdgeStyle;rounded=0;orthogonalLoop=1;jettySize=auto;html=1;exitX=0.5;exitY=1;exitDx=0;exitDy=0;entryX=0.5;entryY=0;entryDx=0;entryDy=0;" edge="1" parent="1" source="iWKQyW9_2lbPBLA1aNCP-5" target="iWKQyW9_2lbPBLA1aNCP-8">
          <mxGeometry relative="1" as="geometry">
            <mxPoint x="260" y="40" as="targetPoint" />
            <Array as="points">
              <mxPoint x="60" y="350" />
              <mxPoint x="140" y="350" />
              <mxPoint x="140" y="40" />
              <mxPoint x="260" y="40" />
            </Array>
          </mxGeometry>
        </mxCell>
        <mxCell id="iWKQyW9_2lbPBLA1aNCP-5" value="menampilkan Tabel seperti &quot;username&quot;, &quot;naama game&quot;, &quot;level&quot;, dan lain lain" style="rounded=1;whiteSpace=wrap;html=1;" vertex="1" parent="1">
          <mxGeometry y="240" width="120" height="60" as="geometry" />
        </mxCell>
        <mxCell id="iWKQyW9_2lbPBLA1aNCP-13" style="edgeStyle=orthogonalEdgeStyle;rounded=0;orthogonalLoop=1;jettySize=auto;html=1;exitX=0.5;exitY=1;exitDx=0;exitDy=0;" edge="1" parent="1" source="iWKQyW9_2lbPBLA1aNCP-8" target="iWKQyW9_2lbPBLA1aNCP-12">
          <mxGeometry relative="1" as="geometry" />
        </mxCell>
        <mxCell id="iWKQyW9_2lbPBLA1aNCP-8" value="Masukkan &quot;Nama Game&quot;" style="rounded=1;whiteSpace=wrap;html=1;" vertex="1" parent="1">
          <mxGeometry x="200" y="110" width="120" height="60" as="geometry" />
        </mxCell>
        <mxCell id="iWKQyW9_2lbPBLA1aNCP-15" style="edgeStyle=orthogonalEdgeStyle;rounded=0;orthogonalLoop=1;jettySize=auto;html=1;exitX=0.5;exitY=1;exitDx=0;exitDy=0;" edge="1" parent="1" source="iWKQyW9_2lbPBLA1aNCP-12" target="iWKQyW9_2lbPBLA1aNCP-14">
          <mxGeometry relative="1" as="geometry" />
        </mxCell>
        <mxCell id="iWKQyW9_2lbPBLA1aNCP-12" value="Masukkan &quot;level&quot;" style="rounded=1;whiteSpace=wrap;html=1;" vertex="1" parent="1">
          <mxGeometry x="200" y="240" width="120" height="60" as="geometry" />
        </mxCell>
        <mxCell id="iWKQyW9_2lbPBLA1aNCP-17" style="edgeStyle=orthogonalEdgeStyle;rounded=0;orthogonalLoop=1;jettySize=auto;html=1;exitX=1;exitY=0.5;exitDx=0;exitDy=0;entryX=0;entryY=0.5;entryDx=0;entryDy=0;" edge="1" parent="1" source="iWKQyW9_2lbPBLA1aNCP-14" target="iWKQyW9_2lbPBLA1aNCP-16">
          <mxGeometry relative="1" as="geometry">
            <mxPoint x="360" y="30" as="targetPoint" />
            <Array as="points">
              <mxPoint x="330" y="390" />
              <mxPoint x="330" y="30" />
            </Array>
          </mxGeometry>
        </mxCell>
        <mxCell id="iWKQyW9_2lbPBLA1aNCP-14" value="klik &quot;tambahkan akun&quot;" style="rounded=1;whiteSpace=wrap;html=1;" vertex="1" parent="1">
          <mxGeometry x="200" y="360" width="120" height="60" as="geometry" />
        </mxCell>
        <mxCell id="iWKQyW9_2lbPBLA1aNCP-19" style="edgeStyle=orthogonalEdgeStyle;rounded=0;orthogonalLoop=1;jettySize=auto;html=1;exitX=0.5;exitY=1;exitDx=0;exitDy=0;" edge="1" parent="1" source="iWKQyW9_2lbPBLA1aNCP-16" target="iWKQyW9_2lbPBLA1aNCP-18">
          <mxGeometry relative="1" as="geometry" />
        </mxCell>
        <mxCell id="iWKQyW9_2lbPBLA1aNCP-16" value="akan menampilkan data yang telah di &quot;tambahkan akun&quot;" style="rounded=1;whiteSpace=wrap;html=1;" vertex="1" parent="1">
          <mxGeometry x="350" width="120" height="60" as="geometry" />
        </mxCell>
        <mxCell id="iWKQyW9_2lbPBLA1aNCP-21" style="edgeStyle=orthogonalEdgeStyle;rounded=0;orthogonalLoop=1;jettySize=auto;html=1;exitX=0.5;exitY=1;exitDx=0;exitDy=0;" edge="1" parent="1" source="iWKQyW9_2lbPBLA1aNCP-18" target="iWKQyW9_2lbPBLA1aNCP-20">
          <mxGeometry relative="1" as="geometry" />
        </mxCell>
        <mxCell id="iWKQyW9_2lbPBLA1aNCP-18" value="klik &quot;simpan file&quot;" style="rounded=1;whiteSpace=wrap;html=1;" vertex="1" parent="1">
          <mxGeometry x="350" y="110" width="120" height="60" as="geometry" />
        </mxCell>
        <mxCell id="iWKQyW9_2lbPBLA1aNCP-23" style="edgeStyle=orthogonalEdgeStyle;rounded=0;orthogonalLoop=1;jettySize=auto;html=1;exitX=0.5;exitY=1;exitDx=0;exitDy=0;entryX=0.5;entryY=0;entryDx=0;entryDy=0;" edge="1" parent="1" source="iWKQyW9_2lbPBLA1aNCP-20" target="iWKQyW9_2lbPBLA1aNCP-22">
          <mxGeometry relative="1" as="geometry" />
        </mxCell>
        <mxCell id="iWKQyW9_2lbPBLA1aNCP-20" value="ketika ngeklik simpan file, data tersebut akan tersimpan di dalam file yang anda pilih" style="rounded=1;whiteSpace=wrap;html=1;" vertex="1" parent="1">
          <mxGeometry x="350" y="240" width="120" height="80" as="geometry" />
        </mxCell>
        <mxCell id="iWKQyW9_2lbPBLA1aNCP-25" style="edgeStyle=orthogonalEdgeStyle;rounded=0;orthogonalLoop=1;jettySize=auto;html=1;exitX=1;exitY=0.5;exitDx=0;exitDy=0;entryX=0;entryY=0.5;entryDx=0;entryDy=0;" edge="1" parent="1" source="iWKQyW9_2lbPBLA1aNCP-22" target="iWKQyW9_2lbPBLA1aNCP-24">
          <mxGeometry relative="1" as="geometry">
            <mxPoint x="510" y="50" as="targetPoint" />
            <Array as="points">
              <mxPoint x="490" y="430" />
              <mxPoint x="490" y="30" />
            </Array>
          </mxGeometry>
        </mxCell>
        <mxCell id="iWKQyW9_2lbPBLA1aNCP-22" value="klik &quot;hapus akun&quot;" style="rounded=1;whiteSpace=wrap;html=1;" vertex="1" parent="1">
          <mxGeometry x="350" y="400" width="120" height="60" as="geometry" />
        </mxCell>
        <mxCell id="iWKQyW9_2lbPBLA1aNCP-24" value="ketika kalian klik hapus akun, maka akun tersebut akan terhapus apabila kalian memilih akun yang akan di hapus" style="rounded=1;whiteSpace=wrap;html=1;" vertex="1" parent="1">
          <mxGeometry x="520" width="180" height="120" as="geometry" />
        </mxCell>
      </root>
    </mxGraphModel>
  </diagram>
</mxfile>
